# WaveFront *.obj file (generated by Autodesk ATF)

mtllib gravestone_A.mtl

g Body1

v 5.000000 -6.700000 -2.000000
v 5.000000 -8.300000 -2.000000
v -5.000000 -8.300000 -2.000000
v -5.000000 -6.700000 -2.000000
v 5.000000 -8.300000 2.000000
v 5.000000 -6.700000 2.000000
v -5.000000 -6.700000 2.000000
v -5.000000 -8.300000 2.000000
v 3.835103 -6.700000 -1.000000
v -3.835103 -6.700000 -1.000000
v -3.835103 4.400000 -1.000000
v -2.670206 4.400000 -1.000000
v -2.519736 4.970016 -1.000000
v -2.249135 5.493785 -1.000000
v -1.871304 5.946336 -1.000000
v -1.404256 6.306093 -1.000000
v -0.870259 6.555905 -1.000000
v -0.294771 6.683861 -1.000000
v 0.294771 6.683861 -1.000000
v 0.870259 6.555905 -1.000000
v 1.404256 6.306093 -1.000000
v 1.871304 5.946336 -1.000000
v 2.249135 5.493785 -1.000000
v 2.519736 4.970016 -1.000000
v 2.670206 4.400000 -1.000000
v 3.835103 4.400000 -1.000000
v 2.670206 4.400000 1.000000
v 3.835103 4.400000 1.000000
v 3.835103 -6.700000 1.000000
v -3.835103 -6.700000 1.000000
v -3.835103 4.400000 1.000000
v -2.670206 4.400000 1.000000
v -2.519736 4.970016 1.000000
v -2.249135 5.493785 1.000000
v -1.871304 5.946336 1.000000
v -1.404256 6.306093 1.000000
v -0.870259 6.555905 1.000000
v -0.294771 6.683861 1.000000
v 0.294771 6.683861 1.000000
v 0.870259 6.555905 1.000000
v 1.404256 6.306093 1.000000
v 1.871304 5.946336 1.000000
v 2.249135 5.493785 1.000000
v 2.519736 4.970016 1.000000
vt 0.800000 5.000000 0.000000
vt -0.800000 5.000000 0.000000
vt 0.800000 -5.000000 0.000000
vt -0.800000 -5.000000 0.000000
vt 0.800000 5.000000 0.000000
vt -0.800000 5.000000 0.000000
vt 0.800000 -5.000000 0.000000
vt -0.800000 -5.000000 0.000000
vt -3.835103 5.200000 0.000000
vt -3.835103 -5.900000 0.000000
vt -2.670206 5.200000 0.000000
vt 3.835103 -5.900000 0.000000
vt 2.670206 5.200000 0.000000
vt 3.835103 5.200000 0.000000
vt -2.519736 5.770016 0.000000
vt 2.519736 5.770016 0.000000
vt -2.249135 6.293785 0.000000
vt 2.249135 6.293785 0.000000
vt -1.871304 6.746336 0.000000
vt 1.871304 6.746336 0.000000
vt -1.404256 7.106093 0.000000
vt 1.404256 7.106093 0.000000
vt -0.870258 7.355905 0.000000
vt 0.870259 7.355905 0.000000
vt -0.294771 7.483861 0.000000
vt 0.294771 7.483861 0.000000
vt 0.000000 0.000000 0.000000
vt 1.164897 0.000000 0.000000
vt 0.000000 2.000000 0.000000
vt 1.164897 2.000000 0.000000
vt 0.000000 0.000000 0.000000
vt 11.100000 0.000000 0.000000
vt 0.000000 2.000000 0.000000
vt 11.100000 2.000000 0.000000
vt 10.000000 3.000000 0.000000
vt 0.000000 3.000000 0.000000
vt 1.164897 2.000000 0.000000
vt -0.000000 -1.000000 0.000000
vt 1.164897 0.000000 0.000000
vt 10.000000 -1.000000 0.000000
vt 8.835103 -0.000000 0.000000
vt 8.835103 2.000000 0.000000
vt 1.600000 3.000000 0.000000
vt 0.000000 3.000000 0.000000
vt 1.600000 -1.000000 0.000000
vt -0.000000 -1.000000 0.000000
vt 10.000000 3.000000 0.000000
vt 0.000000 3.000000 0.000000
vt 10.000000 -1.000000 0.000000
vt 0.000000 -1.000000 0.000000
vt 1.600000 3.000000 0.000000
vt 0.000000 3.000000 0.000000
vt 1.600000 -1.000000 0.000000
vt 0.000000 -1.000000 0.000000
vt 0.000000 0.000000 0.000000
vt 11.100000 -0.000000 0.000000
vt -0.000000 2.000000 0.000000
vt 11.100000 2.000000 0.000000
vt 0.000000 0.000000 0.000000
vt 1.164897 0.000000 0.000000
vt 0.000000 2.000000 0.000000
vt 1.164897 2.000000 0.000000
vt -2.000000 0.401478 0.000000
vt 0.000000 0.401478 0.000000
vt -2.000000 0.992197 0.000000
vt -0.000000 0.992197 0.000000
vt -2.000000 1.582915 0.000000
vt -0.000000 1.582915 0.000000
vt -2.000000 2.173634 0.000000
vt -0.000000 2.173634 0.000000
vt -2.000000 2.764353 0.000000
vt -0.000000 2.764353 0.000000
vt -2.000000 3.355072 0.000000
vt 0.000000 3.355072 0.000000
vt -2.000000 3.945791 0.000000
vt 0.000000 3.945791 0.000000
vt -2.000000 4.536509 0.000000
vt 0.000000 4.536509 0.000000
vt -2.000000 5.127228 0.000000
vt 0.000000 5.127228 0.000000
vt -2.000000 5.717947 0.000000
vt -0.000000 5.717947 0.000000
vt -2.000000 6.308666 0.000000
vt -0.000000 6.308666 0.000000
vt -2.000000 6.899385 0.000000
vt -0.000000 6.899385 0.000000
vt -2.000000 7.490104 0.000000
vt -0.000000 7.490104 0.000000
vt -2.000000 8.080822 0.000000
vt 0.000000 8.080822 0.000000
vt -3.835103 5.200000 0.000000
vt -3.835103 -5.900000 0.000000
vt -2.670206 5.200000 0.000000
vt 3.835103 -5.900000 0.000000
vt 2.670206 5.200000 0.000000
vt 3.835103 5.200000 0.000000
vt -2.519736 5.770016 0.000000
vt 2.519736 5.770016 0.000000
vt -2.249135 6.293785 0.000000
vt 2.249135 6.293785 0.000000
vt -1.871304 6.746336 0.000000
vt 1.871304 6.746336 0.000000
vt -1.404256 7.106093 0.000000
vt 1.404256 7.106093 0.000000
vt -0.870259 7.355905 0.000000
vt 0.870258 7.355905 0.000000
vt -0.294771 7.483861 0.000000
vt 0.294771 7.483861 0.000000
vn 0.000000 0.000000 -1.000000
vn 0.000000 0.000000 -1.000000
vn 0.000000 0.000000 -1.000000
vn 0.000000 0.000000 -1.000000
vn 0.000000 -0.000000 1.000000
vn 0.000000 -0.000000 1.000000
vn 0.000000 -0.000000 1.000000
vn 0.000000 -0.000000 1.000000
vn -0.000000 0.000000 -1.000000
vn -0.000000 0.000000 -1.000000
vn -0.000000 0.000000 -1.000000
vn -0.000000 0.000000 -1.000000
vn -0.000000 0.000000 -1.000000
vn -0.000000 0.000000 -1.000000
vn -0.000000 0.000000 -1.000000
vn -0.000000 0.000000 -1.000000
vn -0.000000 0.000000 -1.000000
vn -0.000000 0.000000 -1.000000
vn -0.000000 0.000000 -1.000000
vn -0.000000 0.000000 -1.000000
vn -0.000000 0.000000 -1.000000
vn -0.000000 0.000000 -1.000000
vn -0.000000 0.000000 -1.000000
vn -0.000000 0.000000 -1.000000
vn -0.000000 0.000000 -1.000000
vn -0.000000 0.000000 -1.000000
vn 0.000000 1.000000 0.000000
vn 0.000000 1.000000 0.000000
vn 0.000000 1.000000 0.000000
vn 0.000000 1.000000 0.000000
vn 1.000000 0.000000 0.000000
vn 1.000000 0.000000 0.000000
vn 1.000000 0.000000 0.000000
vn 1.000000 0.000000 0.000000
vn 0.000000 1.000000 0.000000
vn 0.000000 1.000000 0.000000
vn 0.000000 1.000000 0.000000
vn 0.000000 1.000000 0.000000
vn 0.000000 1.000000 0.000000
vn 0.000000 1.000000 0.000000
vn 0.000000 1.000000 0.000000
vn 0.000000 1.000000 0.000000
vn 1.000000 0.000000 0.000000
vn 1.000000 0.000000 0.000000
vn 1.000000 0.000000 0.000000
vn 1.000000 0.000000 0.000000
vn 0.000000 -1.000000 -0.000000
vn 0.000000 -1.000000 -0.000000
vn 0.000000 -1.000000 -0.000000
vn 0.000000 -1.000000 -0.000000
vn -1.000000 0.000000 0.000000
vn -1.000000 0.000000 0.000000
vn -1.000000 0.000000 0.000000
vn -1.000000 0.000000 0.000000
vn -1.000000 0.000000 0.000000
vn -1.000000 0.000000 0.000000
vn -1.000000 0.000000 0.000000
vn -1.000000 0.000000 0.000000
vn 0.000000 1.000000 0.000000
vn 0.000000 1.000000 0.000000
vn 0.000000 1.000000 0.000000
vn 0.000000 1.000000 0.000000
vn 0.988965 0.148148 0.000000
vn 0.988965 0.148148 0.000000
vn 0.933236 0.359265 0.000000
vn 0.933236 0.359265 0.000000
vn 0.833013 0.553254 0.000000
vn 0.833013 0.553254 0.000000
vn 0.693075 0.720865 0.000000
vn 0.693075 0.720865 0.000000
vn 0.520095 0.854109 0.000000
vn 0.520095 0.854109 0.000000
vn 0.322318 0.946631 0.000000
vn 0.322318 0.946631 0.000000
vn 0.109174 0.994023 0.000000
vn 0.109174 0.994023 0.000000
vn -0.109174 0.994023 0.000000
vn -0.109174 0.994023 0.000000
vn -0.322318 0.946631 0.000000
vn -0.322318 0.946631 0.000000
vn -0.520095 0.854109 0.000000
vn -0.520095 0.854109 0.000000
vn -0.693075 0.720865 0.000000
vn -0.693075 0.720865 0.000000
vn -0.833013 0.553254 0.000000
vn -0.833013 0.553254 0.000000
vn -0.933236 0.359265 0.000000
vn -0.933236 0.359265 0.000000
vn -0.988965 0.148148 0.000000
vn -0.988965 0.148148 0.000000
vn 0.000000 -0.000000 1.000000
vn 0.000000 -0.000000 1.000000
vn 0.000000 -0.000000 1.000000
vn 0.000000 -0.000000 1.000000
vn 0.000000 -0.000000 1.000000
vn 0.000000 -0.000000 1.000000
vn 0.000000 -0.000000 1.000000
vn 0.000000 -0.000000 1.000000
vn 0.000000 -0.000000 1.000000
vn 0.000000 -0.000000 1.000000
vn 0.000000 -0.000000 1.000000
vn 0.000000 -0.000000 1.000000
vn 0.000000 -0.000000 1.000000
vn 0.000000 -0.000000 1.000000
vn 0.000000 -0.000000 1.000000
vn 0.000000 -0.000000 1.000000
vn 0.000000 -0.000000 1.000000
vn 0.000000 -0.000000 1.000000
usemtl Steel_-_Satin
f 1/1/1 2/2/2 4/3/3
f 4/3/3 2/2/2 3/4/4
f 5/5/5 6/6/6 8/7/7
f 8/7/7 6/6/6 7/8/8
f 26/9/9 9/10/10 25/11/11
f 25/11/11 9/10/10 10/12/12
f 25/11/11 10/12/12 12/13/13
f 12/13/13 10/12/12 11/14/14
f 25/11/11 12/13/13 24/15/15
f 24/15/15 12/13/13 13/16/16
f 24/15/15 13/16/16 23/17/17
f 23/17/17 13/16/16 14/18/18
f 23/17/17 14/18/18 22/19/19
f 22/19/19 14/18/18 15/20/20
f 22/19/19 15/20/20 21/21/21
f 21/21/21 15/20/20 16/22/22
f 21/21/21 16/22/22 20/23/23
f 20/23/23 16/22/22 17/24/24
f 20/23/23 17/24/24 19/25/25
f 19/25/25 17/24/24 18/26/26
f 26/27/27 25/28/28 28/29/29
f 28/29/29 25/28/28 27/30/30
f 9/31/31 26/32/32 29/33/33
f 29/33/33 26/32/32 28/34/34
f 7/35/35 6/36/36 29/37/37
f 29/37/37 6/36/36 1/38/38
f 29/37/37 1/38/38 9/39/39
f 9/39/39 1/38/38 4/40/40
f 9/39/39 4/40/40 10/41/41
f 10/41/41 4/40/40 30/42/42
f 30/42/42 4/40/40 7/35/35
f 30/42/42 7/35/35 29/37/37
f 6/43/43 5/44/44 1/45/45
f 1/45/45 5/44/44 2/46/46
f 5/47/47 8/48/48 2/49/49
f 2/49/49 8/48/48 3/50/50
f 8/51/51 7/52/52 3/53/53
f 3/53/53 7/52/52 4/54/54
f 11/55/55 10/56/56 31/57/57
f 31/57/57 10/56/56 30/58/58
f 12/59/59 11/60/60 32/61/61
f 32/61/61 11/60/60 31/62/62
f 27/63/63 25/64/64 44/65/65
f 44/65/65 25/64/64 24/66/66
f 44/65/65 24/66/66 43/67/67
f 43/67/67 24/66/66 23/68/68
f 43/67/67 23/68/68 42/69/69
f 42/69/69 23/68/68 22/70/70
f 42/69/69 22/70/70 41/71/71
f 41/71/71 22/70/70 21/72/72
f 41/71/71 21/72/72 40/73/73
f 40/73/73 21/72/72 20/74/74
f 40/73/73 20/74/74 39/75/75
f 39/75/75 20/74/74 19/76/76
f 39/75/75 19/76/76 38/77/77
f 38/77/77 19/76/76 18/78/78
f 38/77/77 18/78/78 37/79/79
f 37/79/79 18/78/78 17/80/80
f 37/79/79 17/80/80 36/81/81
f 36/81/81 17/80/80 16/82/82
f 36/81/81 16/82/82 35/83/83
f 35/83/83 16/82/82 15/84/84
f 35/83/83 15/84/84 34/85/85
f 34/85/85 15/84/84 14/86/86
f 34/85/85 14/86/86 33/87/87
f 33/87/87 14/86/86 13/88/88
f 33/87/87 13/88/88 32/89/89
f 32/89/89 13/88/88 12/90/90
f 31/91/91 30/92/92 32/93/93
f 32/93/93 30/92/92 29/94/94
f 32/93/93 29/94/94 27/95/95
f 27/95/95 29/94/94 28/96/96
f 32/93/93 27/95/95 33/97/97
f 33/97/97 27/95/95 44/98/98
f 33/97/97 44/98/98 34/99/99
f 34/99/99 44/98/98 43/100/100
f 34/99/99 43/100/100 35/101/101
f 35/101/101 43/100/100 42/102/102
f 35/101/101 42/102/102 36/103/103
f 36/103/103 42/102/102 41/104/104
f 36/103/103 41/104/104 37/105/105
f 37/105/105 41/104/104 40/106/106
f 37/105/105 40/106/106 38/107/107
f 38/107/107 40/106/106 39/108/108
# 44 vertices
# 108 texture params
# 108 normals
# 84 facets

# 1 groups
